<?xml version='1.0' encoding='utf-8'?>
<svg xmlns="http://www.w3.org/2000/svg" width="210mm" height="297mm" version="1.1" style="shape-rendering:geometricPrecision; text-rendering:geometricPrecision; image-rendering:optimizeQuality; fill-rule:evenodd; clip-rule:evenodd" viewBox="0 0 21000 29700"> <defs> <style type="text/css">  .fil0 {fill:black}  </style> </defs> <g id="Ebene_x0020_1"> <metadata id="CorelCorpID_0Corel-Layer"/> <g id="_2489285137456"> <path class="fil0" d="M10982 15369l-346 0c0,-187 -85,-365 -231,-482l993 0 0 344 -416 138zm-2964 -1332l366 346 3008 0 0 304 -3329 0 -746 0 0 -304 0 -472 4212 -1336 437 1839 159 -9c-12,-24 -23,-53 -34,-90l152 -328c134,-67 103,-282 733,-136 411,95 310,-17 773,-37 489,-21 856,166 1268,440 81,54 327,217 376,265 -17,196 -52,12 38,224 70,167 28,135 91,204 92,102 -96,381 -83,512l-69 150c-50,37 -105,156 -286,119 -118,123 -307,165 -471,89 -153,-71 -242,-223 -239,-381l-1324 -575c-117,86 -276,107 -418,42 -136,-63 -221,-190 -237,-328 -78,-31 -133,-52 -174,-75l-323 80 -487 -1812 -3393 1269zm183 346l-314 -297 -188 70 156 227 346 0zm6212 101l729 269c71,-51 89,-105 97,-186 -41,-41 -249,-177 -317,-222 -86,-57 -169,-110 -251,-156 -41,-26 -97,-6 -117,37 0,0 0,0 0,-1l-141 259zm-919 -338c-4,-3 -7,-4 -10,-5 -49,-23 -70,-80 -47,-128 13,-28 38,-48 68,-54 58,-14 137,-30 275,-36 246,-10 455,42 659,135 41,21 57,69 39,109 0,0 0,0 -1,2l-156 282 -827 -305zm1394 1076c122,56 175,200 119,322 -56,123 -201,176 -323,120 -122,-57 -175,-201 -119,-323 57,-122 201,-176 323,-119zm-1981 -914c122,56 175,201 119,323 -56,122 -201,175 -323,119 -122,-57 -175,-201 -119,-323 56,-122 201,-176 323,-119zm-2409 1061c0,268 -217,484 -484,484 -266,0 -484,-216 -484,-484 0,-267 218,-482 484,-482 267,0 484,215 484,482zm-3731 0c0,268 -217,484 -484,484 -266,0 -484,-216 -484,-484 0,-267 218,-482 484,-482 267,0 484,215 484,482zm347 -2070l0 1588 2509 0c-146,117 -231,295 -231,482l-2487 0c0,-342 -278,-622 -622,-622 -344,0 -622,280 -622,622l-69 0c-77,0 -139,-60 -139,-138l0 -764c0,-67 13,-131 35,-193l307 -811c17,-51 66,-87 119,-91l1200 -73zm-484 930l-920 107c-38,4 -71,-22 -75,-60 -3,-11 0,-22 2,-31l233 -618c9,-24 33,-42 60,-44l700 -44 0 690zm3381 858c162,0 294,132 294,294 0,162 -132,294 -294,294 -162,0 -294,-132 -294,-294 0,-162 132,-294 294,-294zm-3738 0c162,0 294,132 294,294 0,162 -132,294 -294,294 -162,0 -294,-132 -294,-294 0,-162 132,-294 294,-294z"/> <g> <polygon class="fil0" points="6679,14613 6537,14471 6679,14328 "/> <polygon class="fil0" points="6822,14756 6679,14613 6822,14471 "/> <polygon class="fil0" points="6965,14756 6822,14613 6965,14471 "/> <polygon class="fil0" points="6679,14471 6822,14328 6965,14471 "/> </g> <g> <polygon class="fil0" points="13792,14746 13726,14555 13917,14489 "/> <polygon class="fil0" points="13857,14936 13792,14746 13983,14680 "/> <polygon class="fil0" points="13986,14999 13920,14808 14111,14743 "/> <polygon class="fil0" points="13854,14618 14045,14552 14111,14743 "/> </g> </g> </g> </svg>